<svg width="24" height="24" viewBox="0 0 24 24" fill="none" xmlns="http://www.w3.org/2000/svg">
<path d="M3.13599 13.5702L2.09536 12.5296C1.65474 12.089 1.65474 11.3765 2.09536 10.9405L11.2032 1.82803C11.6438 1.3874 12.3563 1.3874 12.7922 1.82803L21.9 10.9358C22.3407 11.3765 22.3407 12.089 21.9 12.5249L20.8594 13.5655C20.4141 14.0108 19.6875 14.0015 19.2516 13.5468L13.875 7.90303V21.3749C13.875 21.9983 13.3735 22.4999 12.75 22.4999H11.25C10.6266 22.4999 10.125 21.9983 10.125 21.3749V7.90303L4.7438 13.5515C4.30786 14.0108 3.5813 14.0202 3.13599 13.5702Z" fill="white"/>
</svg>
