<svg width="16" height="16" viewBox="0 0 16 16" fill="none" xmlns="http://www.w3.org/2000/svg">
<g clip-path="url(#clip0_282_1546)">
<path d="M15.833 8.00336C15.833 12.2836 12.3632 15.7534 8.08301 15.7534C3.80279 15.7534 0.333008 12.2836 0.333008 8.00336C0.333008 3.72314 3.80279 0.253357 8.08301 0.253357C12.3632 0.253357 15.833 3.72314 15.833 8.00336ZM7.18657 12.1069L12.9366 6.35692C13.1318 6.16167 13.1318 5.84508 12.9366 5.64983L12.2295 4.94273C12.0342 4.74745 11.7176 4.74745 11.5224 4.94273L6.83301 9.63204L4.64366 7.4427C4.44841 7.24745 4.13182 7.24745 3.93654 7.4427L3.22945 8.14979C3.0342 8.34504 3.0342 8.66164 3.22945 8.85689L6.47945 12.1069C6.67473 12.3022 6.99129 12.3022 7.18657 12.1069Z" fill="#007AFF"/>
</g>
<defs>
<clipPath id="clip0_282_1546">
<rect width="16" height="16" fill="white"/>
</clipPath>
</defs>
</svg>
