<svg width="24" height="24" viewBox="0 0 24 24" fill="none" xmlns="http://www.w3.org/2000/svg">
<g clip-path="url(#clip0_15_1739)">
<path d="M11.2019 8.17657C13.0675 8.17657 14.5769 9.68595 14.5769 11.5516C14.5769 13.4172 13.0675 14.9266 11.2019 14.9266C9.33628 14.9266 7.8269 13.4172 7.8269 11.5516C7.8269 9.68595 9.33628 8.17657 11.2019 8.17657ZM7.8269 3.30157C7.8269 5.1672 9.33628 6.67657 11.2019 6.67657C13.0675 6.67657 14.5769 5.1672 14.5769 3.30157C14.5769 1.43595 13.0675 -0.0734253 11.2019 -0.0734253C9.33628 -0.0734253 7.8269 1.43595 7.8269 3.30157ZM7.8269 19.8016C7.8269 21.6672 9.33628 23.1766 11.2019 23.1766C13.0675 23.1766 14.5769 21.6672 14.5769 19.8016C14.5769 17.9359 13.0675 16.4266 11.2019 16.4266C9.33628 16.4266 7.8269 17.9359 7.8269 19.8016Z" fill="black"/>
</g>
<defs>
<clipPath id="clip0_15_1739">
<rect width="24" height="24" fill="white"/>
</clipPath>
</defs>
</svg>
