<svg width="38" height="38" viewBox="0 0 38 38" fill="none" xmlns="http://www.w3.org/2000/svg">
<circle cx="19" cy="19" r="19" fill="#D9D9D9"/>
<g clip-path="url(#clip0_11_1487)">
<path d="M25.4838 24.985H12.5163C11.6899 24.985 11.02 24.3151 11.02 23.4888V14.5113C11.02 13.6849 11.6899 13.015 12.5163 13.015H25.4838C26.3101 13.015 26.98 13.6849 26.98 14.5113V23.4888C26.98 24.3151 26.3101 24.985 25.4838 24.985ZM14.5113 14.7606C13.5472 14.7606 12.7656 15.5422 12.7656 16.5063C12.7656 17.4703 13.5472 18.2519 14.5113 18.2519C15.4754 18.2519 16.2569 17.4703 16.2569 16.5063C16.2569 15.5422 15.4754 14.7606 14.5113 14.7606ZM13.015 22.99H24.985V19.4988L22.257 16.7708C22.1109 16.6247 21.8741 16.6247 21.728 16.7708L17.5038 20.995L15.7733 19.2645C15.6272 19.1184 15.3903 19.1184 15.2442 19.2645L13.015 21.4938V22.99Z" fill="#707076"/>
</g>
<defs>
<clipPath id="clip0_11_1487">
<rect width="15.96" height="15.96" fill="white" transform="translate(11.02 11.02)"/>
</clipPath>
</defs>
</svg>
